<?xml version="1.0" encoding="utf-8"?>
<!-- Generator: Adobe Illustrator 26.3.1, SVG Export Plug-In . SVG Version: 6.00 Build 0)  -->
<svg version="1.1" id="레이어_1" xmlns="http://www.w3.org/2000/svg" xmlns:xlink="http://www.w3.org/1999/xlink" x="0px"
	 y="0px" viewBox="0 0 485 485" style="enable-background:new 0 0 485 485;" xml:space="preserve">
<style type="text/css">
	.st0{fill:#F2F2F2;}
	.st1{fill:#161616;}
</style>
<path class="st0" d="M430,485H55c-30.38,0-55-24.62-55-55V55C0,24.62,24.62,0,55,0h375c30.38,0,55,24.62,55,55v375
	C485,460.38,460.38,485,430,485z"/>
<g>
	<path class="st1" d="M128.42,178.4v228.16h228.16V178.4H128.42z M344.57,190.41v124.01l-36.08-35.04l-34.61,39.84l-60.47-64.12
		L140.42,321V190.41L344.57,190.41z M140.43,394.55v-57.37l72.31-65.29l61.52,65.22l34.98-40.27l35.33,34.33v63.38L140.43,394.55z
		 M274.07,248.27c7.06-0.11,13.54-3.93,17.04-10.06c3.5-6.13,3.5-13.66,0-19.79c-3.5-6.13-9.98-9.96-17.04-10.06
		c-7.06,0.11-13.54,3.93-17.04,10.06c-3.5,6.13-3.5,13.66,0,19.79C260.53,244.34,267.01,248.17,274.07,248.27L274.07,248.27z
		 M274.07,220.37c2.8,0.06,5.37,1.58,6.75,4.02s1.38,5.42,0,7.86c-1.38,2.44-3.95,3.96-6.75,4.02c-2.8-0.06-5.37-1.58-6.75-4.02
		c-1.39-2.44-1.39-5.42,0-7.86C268.71,221.95,271.27,220.42,274.07,220.37z"/>
	<path class="st1" d="M344.57,78.44H140.43v12.01h204.15V78.44z M308.55,126.47H140.43v12.01h168.12V126.47z"/>
</g>
</svg>
