<?xml version="1.0" encoding="utf-8"?>
<!-- Generator: Adobe Illustrator 26.3.1, SVG Export Plug-In . SVG Version: 6.00 Build 0)  -->
<svg version="1.1" id="레이어_1" xmlns="http://www.w3.org/2000/svg" xmlns:xlink="http://www.w3.org/1999/xlink" x="0px"
	 y="0px" viewBox="0 0 485 485" style="enable-background:new 0 0 485 485;" xml:space="preserve">
<style type="text/css">
	.st0{fill:#F2F2F2;}
	.st1{fill:#161616;}
</style>
<path class="st0" d="M430,485H55c-30.38,0-55-24.62-55-55V55C0,24.62,24.62,0,55,0h375c30.38,0,55,24.62,55,55v375
	C485,460.38,460.38,485,430,485z"/>
<g>
	<path class="st1" d="M213.96,128.42v228.16h228.16V128.42H213.96z M430.11,140.43v124.01l-36.08-35.04l-34.61,39.84l-60.47-64.12
		l-72.99,65.91V140.43L430.11,140.43z M225.97,344.57V287.2l72.31-65.29l61.52,65.22l34.98-40.27l35.33,34.33v63.38L225.97,344.57z
		 M359.61,198.29c7.06-0.11,13.54-3.93,17.04-10.06c3.5-6.13,3.5-13.66,0-19.79c-3.5-6.13-9.98-9.96-17.04-10.06
		c-7.06,0.11-13.54,3.93-17.04,10.06c-3.5,6.13-3.5,13.66,0,19.79C346.08,194.36,352.55,198.19,359.61,198.29L359.61,198.29z
		 M359.61,170.39c2.8,0.06,5.37,1.58,6.75,4.02s1.38,5.42,0,7.86c-1.38,2.44-3.95,3.96-6.75,4.02c-2.8-0.06-5.37-1.58-6.75-4.02
		c-1.39-2.44-1.39-5.42,0-7.86C354.25,171.97,356.81,170.45,359.61,170.39z"/>
	<path class="st1" d="M180.78,140.42H42.88v12.01h137.9V140.42z M180.78,188.46H42.88v12.01h137.9V188.46z M156.44,236.5H42.88
		v12.01h113.57V236.5z M42.88,296.54h89.23l0-12.01H42.88L42.88,296.54z M42.88,344.58h89.23l0-12.01H42.88L42.88,344.58z"/>
</g>
</svg>
